<svg width="40" height="40" viewBox="0 0 100 100" fill="none" xmlns="http://www.w3.org/2000/svg">
<rect width="100" height="100" rx="25" fill="#008CFF"/>
<rect width="100" height="100" rx="25" fill="url(#paint0_radial_10_4)" fill-opacity="0.2"/>
<path d="M59.896 52.76L59.8 59.672C59.928 67.224 57.944 73.112 53.848 77.336C49.752 81.56 43.928 83.672 36.376 83.672C29.144 83.672 23.576 81.656 19.672 77.624C15.832 73.592 13.976 67.896 14.104 60.536L14.2 52.184L14.104 21.464H21.688L21.4 59.576C21.336 65.336 22.616 69.688 25.24 72.632C27.864 75.512 31.768 76.952 36.952 76.952C42.136 76.952 46.072 75.576 48.76 72.824C51.448 70.072 52.76 65.976 52.696 60.536L52.312 21.464H59.992L59.896 52.76ZM83.4138 63.8L83.7978 83H76.0218L76.5018 64.472L76.0218 21.464H83.8938L83.4138 63.8Z" fill="white"/>
<path d="M59.896 52.76L59.8 59.672C59.928 67.224 57.944 73.112 53.848 77.336C49.752 81.56 43.928 83.672 36.376 83.672C29.144 83.672 23.576 81.656 19.672 77.624C15.832 73.592 13.976 67.896 14.104 60.536L14.2 52.184L14.104 21.464H21.688L21.4 59.576C21.336 65.336 22.616 69.688 25.24 72.632C27.864 75.512 31.768 76.952 36.952 76.952C42.136 76.952 46.072 75.576 48.76 72.824C51.448 70.072 52.76 65.976 52.696 60.536L52.312 21.464H59.992L59.896 52.76ZM83.4138 63.8L83.7978 83H76.0218L76.5018 64.472L76.0218 21.464H83.8938L83.4138 63.8Z" fill="url(#paint1_radial_10_4)" fill-opacity="0.2"/>
<defs>
<radialGradient id="paint0_radial_10_4" cx="0" cy="0" r="1" gradientUnits="userSpaceOnUse" gradientTransform="translate(50 50) rotate(90) scale(50)">
<stop stop-opacity="0"/>
<stop offset="1" stop-opacity="0.5"/>
</radialGradient>
<radialGradient id="paint1_radial_10_4" cx="0" cy="0" r="1" gradientUnits="userSpaceOnUse" gradientTransform="translate(50 54) rotate(90) scale(46 43)">
<stop stop-opacity="0"/>
<stop offset="1" stop-opacity="0.5"/>
</radialGradient>
</defs>
</svg>
